{"title":"Crouching.Tiger.Hidden.Dragon.Sword.of.Destiny.2016.HDRip.x264.A","uid":13687276,"size":405197294,"categoryP":"video","categoryS":"movies","magnet":"?xt=urn:btih:fe0e3ed70cd0087dad0e6e867e6a3177c9cf3034&amp;dn=Crouching.Tiger.Hidden.Dragon.Sword.of.Destiny.2016.HDRip.x264.A&amp;tr=udp%3A%2F%2Ftracker.leechers-paradise.org%3A6969&amp;tr=udp%3A%2F%2Fzer0day.ch%3A1337&amp;tr=udp%3A%2F%2Fopen.demonii.com%3A1337&amp;tr=udp%3A%2F%2Ftracker.coppersurfer.tk%3A6969&amp;tr=udp%3A%2F%2Fexodus.desync.com%3A6969","seeders":9,"leechers":1,"uploader":"VYTOP2PDL","files":7,"time":1456570379,"description":"____    ____ ____    ____ .___________.  ______   \r\n     /   /      /   / |           | /  __    \r\n    /   /      /   /  `---|  |----`|  |  |  | \r\n        /     _    _/       |  |     |  |  |  | \r\n       /        |  |         |  |     |  `--'  | \r\n    __/         |__|         |__|      ______/  \r\n                                                  \r\nPresenting Small Encodes with quality for years!\r\n                                                                                                   \r\n                                                                                                   \r\n\r\n\r\nCrouching.Tiger.Hidden.Dragon.Sword.of.Destiny.2016.HDRip.x264.AAC-VYTO\r\n\r\n\r\nGenre: Action, Adventure, Drama  \nhttp://www.imdb.com/title/tt2652118/\r\n\r\n\r\nFormat                                   : MPEG-4\r\nFile size                                : 376 MiB\r\nDuration                                 : 1h 40mn\r\nOverall bit rate                         : 524 Kbps\r\n\r\nVideo\r\nFormat                                   : AVC\r\nBit rate                                 : 489 Kbps\r\nWidth                                    : 720 pixels\r\nHeight                                   : 304 pixels\r\nDisplay aspect ratio                     : 2.35:1\r\nFrame rate mode                          : Constant\r\nFrame rate                               : 23.976 fps\r\nBit depth                                : 8 bits\r\nStream size                              : 351 MiB (93%)\r\nWriting library                          : x264 \r\n\r\nAudio\r\nFormat                                   : AAC\r\nBit rate mode                            : Variable\r\nBit rate                                 : 32.0 Kbps\r\nChannel(s)                               : 2 channels \r\nChannel positions                        : Front: L R \r\nSampling rate                            : 48.0 KHz\r\nStream size                              : 23.0 MiB (6%)\r\nLanguage                                 : English\r\n\r\nSubtitle                                 : Yes (English)\r\n\r\nSceen Shots: (Click to view)\r\n \nhttp://ititli.com/XnG \nhttp://ititli.com/XnH \nhttp://ititli.com/XnM \nhttp://ititli.com/XnU \nhttp://ititli.com/Xnh \nhttp://ititli.com/Xns \nhttp://ititli.com/XnY \nhttp://ititli.com/Xn4 \nhttp://ititli.com/XnK\r\n\r\n----------------------------------------------------------------------------------------------------\r\n\r\n\r\nEncoder Notes: Looking For Early Access To Anything You Can Provide WEBDL, DVDScr, DVDR, BluRay,\r\nDirect Audio, Music Releases and Seedboxes. If You Got anything to offer please contact us.\r\n\r\nSupport us by donating BC - 1FgwdzPsd1y25Gea8wP1qni35uGCtmkRCD\r\n\r\nSend some love!\r\nFind us and join us!","torrent":{"xt":"urn:btih:fe0e3ed70cd0087dad0e6e867e6a3177c9cf3034","amp;dn":"Crouching.Tiger.Hidden.Dragon.Sword.of.Destiny.2016.HDRip.x264.A","amp;tr":["udp%3A%2F%2Ftracker.leechers-paradise.org%3A6969","udp%3A%2F%2Fzer0day.ch%3A1337","udp%3A%2F%2Fopen.demonii.com%3A1337","udp%3A%2F%2Ftracker.coppersurfer.tk%3A6969","udp%3A%2F%2Fexodus.desync.com%3A6969"],"infoHash":"fe0e3ed70cd0087dad0e6e867e6a3177c9cf3034","infoHashBuffer":{"type":"Buffer","data":[254,14,62,215,12,208,8,125,173,14,110,134,126,106,49,119,201,207,48,52]},"announce":[],"urlList":[]}}